
<svg xmlns="http://www.w3.org/2000/svg" version="1.1" xmlns:xlink="http://www.w3.org/1999/xlink" preserveAspectRatio="none" x="0px" y="0px" width="512px" height="512px" viewBox="0 0 512 512">
<defs>
<linearGradient id="Gradient_1" gradientUnits="userSpaceOnUse" x1="1.975" y1="-326.425" x2="0.42499999999999993" y2="412.12500000000006" spreadMethod="pad">
<stop  offset="0%" stop-color="#5DCDE8"/>

<stop  offset="34.90196078431372%" stop-color="#3C86DA"/>

<stop  offset="63.529411764705884%" stop-color="#7354EF"/>

<stop  offset="100%" stop-color="#853AE4"/>
</linearGradient>

<linearGradient id="Gradient_2" gradientUnits="userSpaceOnUse" x1="0" y1="-152.45000000000002" x2="0" y2="152.45000000000002" spreadMethod="pad">
<stop  offset="0%" stop-color="#5DCDE8"/>

<stop  offset="34.90196078431372%" stop-color="#3C86DA"/>

<stop  offset="63.529411764705884%" stop-color="#7354EF"/>

<stop  offset="100%" stop-color="#9128DC"/>
</linearGradient>

<linearGradient id="Gradient_3" gradientUnits="userSpaceOnUse" x1="197.67499999999998" y1="-126.02499999999999" x2="214.025" y2="-97.675" spreadMethod="pad">
<stop  offset="0%" stop-color="#FFFFFF"/>

<stop  offset="100%" stop-color="#D7D9E3"/>
</linearGradient>

<g id="Layer0_0_MEMBER_0_FILL">
<path fill="url(#Gradient_1)" stroke="none" d="
M 291.85 -168.5
L 0 -336.75 -47.75 -309.15 -47.75 -308.7
Q -48.2 -308.7 -48.65 -308.7
L -92.45 -283.75
Q -98.6 -280.25 -104.3 -276.75 -112.6 -271.9 -120.05 -267.95 -152.5 -249.1 -184.45 -230.3 -194.55 -225 -204.6 -218.9 -209.45 -215.8 -214.7 -212.75
L -291.8 -168.5 -291.8 168.9 0 336.75 291.85 168.9 291.85 -168.5 Z"/>
</g>

<g id="Layer0_0_MEMBER_1_FILL">
<path fill="url(#Gradient_2)" stroke="none" d="
M 136.3 -78.9
L 0 -157.2 -136.3 -78.9 -136.3 78.75 0 157.2 22.35 144.4 22.35 144.15
Q 22.5 144.15 22.75 144.15
L 43.2 132.45
Q 46.05 130.85 48.7 129.2 52.6 126.95 56.05 125.1 71.2 116.3 86.15 107.55 90.85 105.05 95.5 102.2 97.8 100.8 100.25 99.35
L 136.3 78.75 136.25 78.65 136.3 -78.9 Z"/>
</g>

<g id="Layer0_0_MEMBER_2_FILL">
<path fill="#FFFFFF" fill-opacity="0.2" stroke="none" d="
M -98.05 -56.65
L -291.8 -168.95 -291.8 168.45 -49.95 307.8 -49.95 308.25 0 336.75 -0.2 112.7 -98.05 -56.65 Z"/>

<path fill="#533FB9" fill-opacity="0.6980392156862745" stroke="none" d="
M 291.85 -168.95
L 97.55 -56.7 -0.2 112.7 0 336.75 291.8 168.5 291.85 -168.95 Z"/>
</g>

<g id="Layer0_0_MEMBER_3_FILL">
<path fill="#E8E9F0" stroke="none" d="
M 0 264.45
L 0 112.15 -96.7 -55.8 -96.7 -55.8 -96.15 -55.8 -96.55 -56.05 -96.55 -56.05 -228.8 -132.5 -228.85 -132.55 -229.15 -132.35 -229.15 132.65 -229.05 132.7 -229 132.75 -229 132.75 0 264.45
M -132.75 -70.5
L -112.5 -58.65 -132.75 23.05 -132.75 -70.5
M -5.5 126.25
L -5.5 149.65 -86.5 103.2 -5.5 126.25
M -11.15 114
L -135.2 78.1 -104.1 -47.25 -11.15 114
M 0.05 -155.15
L 0.05 -155.25
Q 0.0251953125 -155.1984375 0 -155.2
L 0.05 -155.15
M 0.05 -56.7
L 0.05 -64.65 0 -64.65 0 -56.7 0.05 -56.7
M 0 -264.45
Q 0.0251953125 -264.41171875 0.05 -264.4
L 0.05 -264.45 0 -264.45 Z"/>

<path fill="#D7D9E3" stroke="none" d="
M 135 78.15
L 134.65 77.95 134.65 78 134.65 78 134.95 78.15 146.55 84.9 146.55 84.85 143.1 82.85 135 78.15
M 227.1 131.55
Q 227.0916015625 131.509765625 227.05 131.45
L 225.75 130.75 227.1 131.55
M 227.1 131.55
L 227.7 131.9 227.25 131.6 227.1 131.55
M 55.5 32.1
L 48.6 28.1 48.55 28.15 55.45 32.15 55.5 32.1 Z"/>

<path fill="url(#Gradient_3)" stroke="none" d="
M 0.05 -264.4
Q 0.0251953125 -264.41171875 0 -264.45
L -37.5 -242.75 -37.5 -242.45
Q -37.8 -242.45 -38.2 -242.45
L -72.6 -222.85
Q -77.4 -220.05 -81.9 -217.35 -88.4 -213.55 -94.3 -210.45 -119.7 -195.65 -144.85 -180.85 -152.75 -176.75 -160.65 -171.95 -164.45 -169.45 -168.65 -167.05
L -228.85 -132.55 -228.8 -132.5 -96.55 -56.05 -96.55 -56.05 -96.15 -55.8 97.15 -55.95 0 112.15 0 264.45 229.1 132.7 227.7 131.9 227.1 131.55 225.75 130.75 146.55 84.9 134.95 78.15 11.2 114 104.35 -47.15 135.3 78.1 135 78.15 143.1 82.85 143.1 -82.65 147 -85 147 -85.05 228.95 -132.5 0.05 -264.45 0.05 -264.4
M 45.9 -126.35
L 47 -125.7 46.7 -126 127.15 -79.7 106.85 -67.95 45.9 -126.35
M 0.05 -64.65
L 0.05 -56.7 0 -56.7 0 -64.65 0.05 -64.65
M 112.55 -58.55
L 132.5 -70.1 132.5 23.1 112.55 -58.55
M 48.6 28.1
L 55.5 32.1 55.45 32.15 48.55 28.15 48.6 28.1
M 52.8 122.35
Q 52.5529296875 122.505078125 52.3 122.65
L 6.95 148.7 6.95 148.65 6.75 148.75
Q 6.5 148.95 6.25 149.1
L 5.5 149.5 5.5 126.15 86.25 103.2 83.15 104.95
Q 67.999609375 113.653515625 52.8 122.35
M -47 -126
L -47.35 -125.65 -46.2 -126.3 -106.95 -68.15 -127.05 -79.9 -125.65 -80.7 -125.7 -80.7 -47 -126
M -93.05 -66.4
L -0.15 -155.85 93.15 -66.55 -93.05 -66.4 Z"/>
</g>
</defs>

<g transform="matrix( 0.7601165771484375, 0, 0, 0.7601470947265625, 256,256) ">
<use xlink:href="#Layer0_0_MEMBER_0_FILL"/>
</g>

<g transform="matrix( 0.7601165771484375, 0, 0, 0.7601470947265625, 256,256) ">
<use xlink:href="#Layer0_0_MEMBER_1_FILL"/>
</g>

<g transform="matrix( 0.7601165771484375, 0, 0, 0.7601470947265625, 256,256) ">
<use xlink:href="#Layer0_0_MEMBER_2_FILL"/>
</g>

<g transform="matrix( 0.7601165771484375, 0, 0, 0.7601470947265625, 256,256) ">
<use xlink:href="#Layer0_0_MEMBER_3_FILL"/>
</g>
</svg>
