
<svg xmlns="http://www.w3.org/2000/svg" version="1.1" xmlns:xlink="http://www.w3.org/1999/xlink" preserveAspectRatio="none" x="0px" y="0px" width="420px" height="274px" viewBox="0 0 420 274">
<defs>
<linearGradient id="Gradient_1" gradientUnits="userSpaceOnUse" x1="1.975" y1="-326.425" x2="0.42499999999999993" y2="412.12500000000006" spreadMethod="pad">
<stop  offset="0%" stop-color="#5DCDE8"/>

<stop  offset="34.90196078431372%" stop-color="#3C86DA"/>

<stop  offset="63.529411764705884%" stop-color="#7354EF"/>

<stop  offset="100%" stop-color="#853AE4"/>
</linearGradient>

<linearGradient id="Gradient_2" gradientUnits="userSpaceOnUse" x1="0" y1="-152.45000000000002" x2="0" y2="152.45000000000002" spreadMethod="pad">
<stop  offset="0%" stop-color="#5DCDE8"/>

<stop  offset="34.90196078431372%" stop-color="#3C86DA"/>

<stop  offset="63.529411764705884%" stop-color="#7354EF"/>

<stop  offset="100%" stop-color="#9128DC"/>
</linearGradient>

<linearGradient id="Gradient_3" gradientUnits="userSpaceOnUse" x1="197.67499999999998" y1="-126.02499999999999" x2="214.025" y2="-97.675" spreadMethod="pad">
<stop  offset="0%" stop-color="#FFFFFF"/>

<stop  offset="100%" stop-color="#D7D9E3"/>
</linearGradient>

<linearGradient id="Gradient_4" gradientUnits="userSpaceOnUse" x1="406.4" y1="219.275" x2="406.4" y2="275.725" spreadMethod="pad">
<stop  offset="0%" stop-color="#5F41C7"/>

<stop  offset="100%" stop-color="#3D4DC6"/>
</linearGradient>

<g id="Layer0_0_MEMBER_0_MEMBER_0_FILL">
<path fill="url(#Gradient_1)" stroke="none" d="
M 291.85 -168.5
L 0 -336.75 -47.75 -309.15 -47.75 -308.7
Q -48.2 -308.7 -48.65 -308.7
L -92.45 -283.75
Q -98.6 -280.25 -104.3 -276.75 -112.6 -271.9 -120.05 -267.95 -152.5 -249.1 -184.45 -230.3 -194.55 -225 -204.6 -218.9 -209.45 -215.8 -214.7 -212.75
L -291.8 -168.5 -291.8 168.9 0 336.75 291.85 168.9 291.85 -168.5 Z"/>
</g>

<g id="Layer0_0_MEMBER_0_MEMBER_1_FILL">
<path fill="url(#Gradient_2)" stroke="none" d="
M 136.3 -78.9
L 0 -157.2 -136.3 -78.9 -136.3 78.75 0 157.2 22.35 144.4 22.35 144.15
Q 22.5 144.15 22.75 144.15
L 43.2 132.45
Q 46.05 130.85 48.7 129.2 52.6 126.95 56.05 125.1 71.2 116.3 86.15 107.55 90.85 105.05 95.5 102.2 97.8 100.8 100.25 99.35
L 136.3 78.75 136.25 78.65 136.3 -78.9 Z"/>
</g>

<g id="Layer0_0_MEMBER_0_MEMBER_2_FILL">
<path fill="#FFFFFF" fill-opacity="0.2" stroke="none" d="
M -98.05 -56.65
L -291.8 -168.95 -291.8 168.45 -49.95 307.8 -49.95 308.25 0 336.75 -0.2 112.7 -98.05 -56.65 Z"/>

<path fill="#533FB9" fill-opacity="0.6980392156862745" stroke="none" d="
M 291.85 -168.95
L 97.55 -56.7 -0.2 112.7 0 336.75 291.8 168.5 291.85 -168.95 Z"/>
</g>

<g id="Layer0_0_MEMBER_0_MEMBER_3_FILL">
<path fill="#E8E9F0" stroke="none" d="
M 0 264.45
L 0 112.15 -96.7 -55.8 -96.7 -55.8 -96.15 -55.8 -96.55 -56.05 -96.55 -56.05 -228.8 -132.5 -228.85 -132.55 -229.15 -132.35 -229.15 132.65 -229.05 132.7 -229 132.75 -229 132.75 0 264.45
M -132.75 -70.5
L -112.5 -58.65 -132.75 23.05 -132.75 -70.5
M -5.5 126.25
L -5.5 149.65 -86.5 103.2 -5.5 126.25
M -11.15 114
L -135.2 78.1 -104.1 -47.25 -11.15 114
M 0.05 -155.15
L 0.05 -155.25
Q 0.0251953125 -155.1984375 0 -155.2
L 0.05 -155.15
M 0.05 -56.7
L 0.05 -64.65 0 -64.65 0 -56.7 0.05 -56.7
M 0 -264.45
Q 0.0251953125 -264.41171875 0.05 -264.4
L 0.05 -264.45 0 -264.45 Z"/>

<path fill="#D7D9E3" stroke="none" d="
M 135 78.15
L 134.65 77.95 134.65 78 134.65 78 134.95 78.15 146.55 84.9 146.55 84.85 143.1 82.85 135 78.15
M 227.1 131.55
Q 227.0916015625 131.509765625 227.05 131.45
L 225.75 130.75 227.1 131.55
M 227.1 131.55
L 227.7 131.9 227.25 131.6 227.1 131.55
M 55.5 32.1
L 48.6 28.1 48.55 28.15 55.45 32.15 55.5 32.1 Z"/>

<path fill="url(#Gradient_3)" stroke="none" d="
M 0.05 -264.4
Q 0.0251953125 -264.41171875 0 -264.45
L -37.5 -242.75 -37.5 -242.45
Q -37.8 -242.45 -38.2 -242.45
L -72.6 -222.85
Q -77.4 -220.05 -81.9 -217.35 -88.4 -213.55 -94.3 -210.45 -119.7 -195.65 -144.85 -180.85 -152.75 -176.75 -160.65 -171.95 -164.45 -169.45 -168.65 -167.05
L -228.85 -132.55 -228.8 -132.5 -96.55 -56.05 -96.55 -56.05 -96.15 -55.8 97.15 -55.95 0 112.15 0 264.45 229.1 132.7 227.7 131.9 227.1 131.55 225.75 130.75 146.55 84.9 134.95 78.15 11.2 114 104.35 -47.15 135.3 78.1 135 78.15 143.1 82.85 143.1 -82.65 147 -85 147 -85.05 228.95 -132.5 0.05 -264.45 0.05 -264.4
M 45.9 -126.35
L 47 -125.7 46.7 -126 127.15 -79.7 106.85 -67.95 45.9 -126.35
M 0.05 -64.65
L 0.05 -56.7 0 -56.7 0 -64.65 0.05 -64.65
M 112.55 -58.55
L 132.5 -70.1 132.5 23.1 112.55 -58.55
M 48.6 28.1
L 55.5 32.1 55.45 32.15 48.55 28.15 48.6 28.1
M 52.8 122.35
Q 52.5529296875 122.505078125 52.3 122.65
L 6.95 148.7 6.95 148.65 6.75 148.75
Q 6.5 148.95 6.25 149.1
L 5.5 149.5 5.5 126.15 86.25 103.2 83.15 104.95
Q 67.999609375 113.653515625 52.8 122.35
M -47 -126
L -47.35 -125.65 -46.2 -126.3 -106.95 -68.15 -127.05 -79.9 -125.65 -80.7 -125.7 -80.7 -47 -126
M -93.05 -66.4
L -0.15 -155.85 93.15 -66.55 -93.05 -66.4 Z"/>
</g>

<g id="Layer0_0_MEMBER_1_MEMBER_0_FILL">
<path fill="url(#Gradient_4)" stroke="none" d="
M 164.6 239.45
Q 164.6 232.9 169.2 228.2 173.8 223.65 180.4 223.65 186.85 223.65 191.5 228.2 193.8 230.55 195 233.35 195.7 230.65 197.05 228.25 195.95 226.65 194.55 225.25 188.65 219.4 180.4 219.4 172.1 219.4 166.2 225.25 160.35 231.1 160.35 239.45 160.35 247.65 166.2 253.55 172.1 259.4 180.4 259.4 188.65 259.4 194.55 253.55 195.95 252.1 197.05 250.55 195.7 248.1 195 245.4 193.8 248.25 191.5 250.55 186.85 255.15 180.4 255.15 173.8 255.15 169.2 250.55 164.6 245.95 164.6 239.45
M 236.3 232.6
Q 234.95 228.6 231.55 225.25 225.75 219.4 217.45 219.4 209.2 219.4 203.25 225.25 201.85 226.65 200.75 228.25 199.65 229.85 198.9 231.65 197.4 235.2 197.4 239.45 197.4 243.6 198.9 247.15 199.65 248.9 200.75 250.55 201.85 252.1 203.25 253.55 209.2 259.4 217.45 259.4 225.75 259.4 231.55 253.55 234.95 250.25 236.3 246.1 235.4 243 235.4 239.45 235.4 235.85 236.3 232.6
M 202.8 233.35
Q 203.95 230.55 206.25 228.2 210.9 223.65 217.45 223.65 224 223.65 228.55 228.2 233.15 232.8 233.15 239.45 233.15 245.95 228.55 250.55 223.95 255.15 217.45 255.15 210.9 255.15 206.25 250.55 203.95 248.25 202.8 245.5 201.65 242.7 201.65 239.45 201.65 236.15 202.8 233.35
M 256.4 237.35
L 256.4 241.55 272.2 241.55
Q 272.1 240.5 272.1 239.45 272.1 238.4 272.2 237.35
L 256.4 237.35
M 244.4 225.25
L 244.35 225.25
Q 241.1 228.5 239.7 232.6 238.5 235.75 238.5 239.45 238.5 243.05 239.7 246.2 241.1 250.25 244.4 253.55
L 244.35 253.55
Q 250.25 259.4 258.55 259.4 266.85 259.4 272.7 253.55 274.05 252.2 275.05 250.85 273.7 248.5 273 245.95 271.85 248.45 269.75 250.55
L 269.65 250.55
Q 265.1 255.15 258.55 255.15 252 255.15 247.4 250.55 242.75 245.95 242.75 239.45 242.75 232.9 247.4 228.2 252.05 223.65 258.55 223.65 265.1 223.65 269.75 228.2 271.85 230.3 273 232.9 273.7 230.3 275.05 228.05 274.05 226.55 272.7 225.25 266.85 219.4 258.55 219.4 250.25 219.4 244.4 225.25
M 297.45 241.55
L 297.45 237.35 282.8 237.35
Q 282.65 238.35 282.65 239.45 282.65 240.5 282.8 241.55
L 297.45 241.55
M 284.1 228.2
Q 288.55 223.8 294.9 223.65
L 311.05 223.65 311.05 219.4 294.75 219.4
Q 286.75 219.6 281.15 225.25
L 281.1 225.25
Q 279.8 226.55 278.8 228.05 277.7 229.55 276.9 231.3 275.25 235 275.25 239.45 275.25 243.8 276.9 247.55 277.7 249.25 278.8 250.85 279.8 252.2 281.15 253.55
L 281.1 253.55
Q 286.75 259.25 294.65 259.4
L 311.05 259.4 311.05 255.15 294.9 255.15
Q 288.55 255 284.1 250.55 282 248.45 280.9 245.95 279.5 243 279.5 239.45 279.5 235.85 280.9 232.9 282 230.3 284.1 228.2
M 389.9 275.65
L 389.9 264.35 160.1 264.35 160.1 275.65 389.9 275.65
M 389.7 223.65
L 389.7 219.4 346.75 219.4 346.75 255.15 346.55 255.15 321.5 220.3
Q 321.15 219.85 320.7 219.65 320.25 219.4 319.75 219.4
L 314.25 219.4 314.25 259.4 318.45 259.4 318.45 223.65 318.65 223.65 343.7 258.55
Q 344.05 259 344.5 259.25 344.95 259.4 345.45 259.4
L 350.95 259.4 350.95 223.65 366.95 223.65 366.95 259.4 371.2 259.4 371.2 223.65 389.7 223.65 Z"/>
</g>

<g id="Layer0_0_MEMBER_1_MEMBER_1_FILL">
<path fill="#FFFFFF" stroke="none" d="
M 207.3 266.6
Q 206.6 266.6 206 266.95 205.45 267.25 205.1 267.75 204.8 268.35 204.8 269.1
L 204.8 270.8
Q 204.8 271.55 205.1 272.15 205.45 272.7 206 273.05 206.6 273.35 207.3 273.35
L 208.3 273.35
Q 209.05 273.35 209.65 273.05 210.2 272.7 210.5 272.15 210.8 271.55 210.8 270.8
L 210.8 269.1
Q 210.8 268.35 210.5 267.75 210.2 267.25 209.65 266.95 209.05 266.6 208.3 266.6
L 207.3 266.6
M 206.4 268.15
Q 206.8 267.75 207.3 267.75
L 208.3 267.75
Q 208.85 267.75 209.2 268.15 209.55 268.55 209.55 269.2
L 209.55 270.8
Q 209.55 271.4 209.2 271.8 208.85 272.2 208.3 272.2
L 207.3 272.2
Q 206.8 272.2 206.4 271.8 206.1 271.4 206.1 270.8
L 206.1 269.2
Q 206.1 268.55 206.4 268.15
M 234.05 266.65
L 232.8 266.65 232.8 272.4
Q 232.8 272.75 233.05 273.05 233.3 273.3 233.7 273.3
L 237.65 273.3 237.65 272.15 234.05 272.15 234.05 266.65
M 182.75 269.8
Q 183 269.5 183 269
L 183 268.35
Q 183 267.55 182.5 267.1 182 266.65 181.1 266.65
L 177.65 266.65 177.65 273.3 178.9 273.3 178.9 270.9 180.5 270.9
Q 180.85 270.9 181.05 271.1 181.3 271.3 181.35 271.7
L 181.85 273.3 183.2 273.3 182.7 271.6
Q 182.5 271.15 182.4 270.9 182.25 270.6 181.95 270.45
L 181.95 270.4
Q 182.45 270.2 182.75 269.8
M 181.55 267.95
Q 181.65 268.15 181.65 268.4
L 181.65 269.05
Q 181.65 269.35 181.5 269.55 181.3 269.75 180.85 269.75
L 178.9 269.75 178.9 267.75 181.1 267.75
Q 181.35 267.75 181.55 267.95
M 291.7 268.45
Q 291.7 267.95 291.45 267.5 291.2 267.1 290.75 266.85 290.3 266.65 289.7 266.65
L 286.2 266.65 286.2 273.3 287.5 273.3 287.5 271.15 289.65 271.15
Q 290.3 271.15 290.75 270.95 291.2 270.7 291.45 270.25 291.7 269.9 291.7 269.3
L 291.7 268.45
M 287.5 270.1
L 287.5 267.75 289.7 267.75
Q 290.05 267.75 290.15 267.95 290.3 268.15 290.3 268.45
L 290.3 269.3
Q 290.3 269.65 290.15 269.8 289.95 270.1 289.65 270.1
L 287.5 270.1
M 314.7 266.65
L 313.4 266.65 313.4 272.4
Q 313.4 272.75 313.55 273.05 313.85 273.3 314.3 273.3
L 318.2 273.3 318.2 272.15 314.7 272.15 314.7 266.65
M 264.35 267.75
L 264.35 266.65 259.3 266.65 259.3 272.4
Q 259.3 272.75 259.55 273.05 259.8 273.3 260.25 273.3
L 264.35 273.3 264.35 272.15 260.6 272.15 260.6 270.45 264.1 270.45 264.1 269.3 260.6 269.3 260.6 267.75 264.35 267.75
M 366.7 266.65
L 369.15 270.7 369.15 273.3 370.45 273.3 370.45 270.7 372.85 266.65 371.45 266.65 369.8 269.5 368.1 266.65 366.7 266.65
M 343.35 267.25
Q 343.15 266.65 342.5 266.65
L 341.9 266.65 339.35 273.3 340.7 273.3 341.25 271.75 343.8 271.75 344.35 273.3 345.7 273.3 343.35 267.25
M 341.65 270.6
L 342.5 268.3 342.55 268.3 343.4 270.6 341.65 270.6 Z"/>
</g>
</defs>

<g transform="matrix( 0.2454071044921875, 0, 0, 0.2454071044921875, 213.25,82.65) ">
<use xlink:href="#Layer0_0_MEMBER_0_MEMBER_0_FILL"/>
</g>

<g transform="matrix( 0.2454071044921875, 0, 0, 0.2454071044921875, 213.25,82.65) ">
<use xlink:href="#Layer0_0_MEMBER_0_MEMBER_1_FILL"/>
</g>

<g transform="matrix( 0.2454071044921875, 0, 0, 0.2454071044921875, 213.25,82.65) ">
<use xlink:href="#Layer0_0_MEMBER_0_MEMBER_2_FILL"/>
</g>

<g transform="matrix( 0.2454071044921875, 0, 0, 0.2454071044921875, 213.25,82.65) ">
<use xlink:href="#Layer0_0_MEMBER_0_MEMBER_3_FILL"/>
</g>

<g transform="matrix( 1.8276824951171875, 0, 0, 1.8276824951171875, -292.6,-229) ">
<use xlink:href="#Layer0_0_MEMBER_1_MEMBER_0_FILL"/>
</g>

<g transform="matrix( 1.8276824951171875, 0, 0, 1.8276824951171875, -292.6,-229) ">
<use xlink:href="#Layer0_0_MEMBER_1_MEMBER_1_FILL"/>
</g>
</svg>
