<?xml version="1.0" encoding="UTF-8" standalone="no"?>
<!DOCTYPE svg PUBLIC "-//W3C//DTD SVG 1.1//EN" "http://www.w3.org/Graphics/SVG/1.1/DTD/svg11.dtd">
<svg width="100%" height="100%" viewBox="0 0 1029 52" version="1.1" xmlns="http://www.w3.org/2000/svg" xmlns:xlink="http://www.w3.org/1999/xlink" xml:space="preserve" xmlns:serif="http://www.serif.com/" style="fill-rule:evenodd;clip-rule:evenodd;stroke-linejoin:round;stroke-miterlimit:2;">
    <path d="M1029,38.04C1015.88,36.611 1003.89,39.07 992.911,46.131C992.65,45.559 997.966,37.869 1019.73,32.507C1021.06,32.18 1023.11,31.489 1023.4,30.94C1024.5,28.831 1025.75,21.136 1022.05,16.433C1020.96,17.126 1009.79,25.323 998.854,28.215C993.979,29.504 984.963,29.005 981.871,23.942C983.469,23.942 984.784,23.939 986.098,23.942C988.714,23.949 991.006,23.305 991.132,20.284C991.261,17.205 989.266,15.598 986.33,15.237C974.832,13.826 964.045,19.812 960.232,30.583C958.326,35.967 955.067,39.041 950.026,41.362C940.177,45.899 928.46,41.091 925.327,30.865C923.908,26.237 923.297,25.03 920.498,24.928C898.943,24.14 804.412,25.929 795.219,26.141C779.524,26.504 731.806,25.858 707.406,26.158C682.797,26.461 658.19,26.225 633.584,26.438C618.781,26.566 594.766,26.76 579.964,26.988C571.004,27.126 562.044,27.59 553.087,27.517C547.014,27.468 541.278,25.935 536.599,21.698C530.11,15.823 521.764,15.222 513.722,15.222C499.973,15.222 495.655,17.289 495.588,16.87C495.588,16.87 502.982,11.706 506.65,10.941C516.377,8.912 526.807,8.237 536.599,6.504C538.066,6.245 538.927,4.984 540.405,4.876C544.594,4.569 551.575,5.645 551.34,10.114C551.107,14.524 546.265,13.642 546.65,13.565C553.087,12.28 546.65,6.318 541.993,10.29C541.3,10.88 541.864,13.147 542.514,14.301C543.994,16.921 546.03,19.058 549.527,19.019C558.985,18.913 585.019,19.77 587.454,19.77C592.074,19.77 734.011,21.101 743.086,18.705C746.393,17.831 886.505,19.734 891.282,20.378C893.909,20.732 912.918,18.852 916.164,18.874C917.651,18.884 919.311,18.733 920.498,18.708C925.514,18.604 926.839,17.672 929.959,15.436C936.527,10.729 939.478,11.646 939.478,11.646C939.478,11.646 923.39,20.284 932.56,30.465C936.067,34.359 940.714,34.512 945.348,33.606C949.261,32.84 953.02,31.6 953.965,26.772C957.504,8.707 978.523,0.77 991.78,2.817C997.898,3.762 1002.39,7.028 1006.26,12.533C1006.26,12.533 997.209,10.213 997.209,16.77C997.209,19.47 999.395,20.446 1001.97,20.244C1003.32,20.138 1004.73,19.988 1005.97,19.509C1013.88,16.452 1020.75,11.952 1026.14,5.422C1026.95,4.446 1027.79,3.5 1029,2.091L1029,38.04ZM267.061,21.601C264.884,21.593 267.386,21.472 267.061,21.601C262.249,23.507 213.751,21.127 187.917,21.505C162.608,21.876 115.304,23.893 112.058,23.871C105.516,23.827 105.516,24.851 103.673,30.865C100.54,41.091 88.823,45.899 78.974,41.362C73.933,39.041 70.674,35.967 68.768,30.583C64.955,19.812 54.168,13.826 42.67,15.237C39.734,15.598 37.739,17.205 37.868,20.284C37.994,23.305 40.286,23.949 42.902,23.942C44.216,23.939 45.531,23.942 47.129,23.942C44.037,29.005 35.021,29.504 30.146,28.215C19.213,25.323 8.04,17.126 6.949,16.433C3.247,21.136 4.505,28.831 5.602,30.94C5.888,31.489 7.94,32.18 9.267,32.507C31.034,37.869 36.35,45.559 36.089,46.131C25.105,39.07 13.125,36.611 0,38.04L0,2.091C1.21,3.5 2.052,4.446 2.857,5.422C8.245,11.952 15.125,16.452 23.031,19.509C24.271,19.988 25.682,20.138 27.031,20.244C29.605,20.446 31.791,19.47 31.791,16.77C31.791,10.213 22.743,12.533 22.743,12.533C26.606,7.028 31.102,3.762 37.22,2.817C50.477,0.77 71.496,8.707 75.035,26.772C75.98,31.6 79.739,32.84 83.652,33.606C88.286,34.512 92.933,34.359 96.44,30.465C105.609,20.284 89.522,11.646 89.522,11.646C89.522,11.646 92.473,10.729 99.041,15.436C102.183,17.688 104.986,18.893 108.578,18.705C111.187,18.568 113.774,18.025 116.383,17.879C125.567,17.364 134.751,16.743 143.944,16.531C159.639,16.168 175.34,15.932 191.039,15.919C209.893,15.903 228.747,16.207 247.601,16.319C272.006,16.466 296.416,16.887 320.816,16.587C345.425,16.284 370.032,16.52 394.638,16.307C409.441,16.179 433.456,15.985 448.258,15.757C457.218,15.619 466.178,15.155 475.135,15.228C481.208,15.277 486.944,16.81 491.623,21.047C498.112,26.922 506.458,27.523 514.5,27.523C528.249,27.523 532.567,25.456 532.634,25.875C532.634,25.875 525.24,31.039 521.572,31.804C511.845,33.833 501.415,34.508 491.623,36.241C490.156,36.5 489.295,37.761 487.817,37.869C483.628,38.176 476.646,37.1 476.882,32.631C477.114,28.221 481.956,29.103 481.571,29.179C475.135,30.465 481.571,36.427 486.229,32.455C486.921,31.864 486.358,29.598 485.708,28.444C484.228,25.824 482.192,23.687 478.695,23.726C469.237,23.832 459.756,23.555 450.331,24.141C446.495,24.38 443.203,22.975 440.768,22.975C436.148,22.975 412.916,22.287 403.841,24.683C400.534,25.557 396.545,23.903 392.858,23.476C389.769,23.118 386.666,22.601 383.569,22.61C358.092,22.682 332.615,21.935 307.138,21.975C293.779,21.996 280.42,21.648 267.061,21.601ZM511,21.022C511,18.637 512.609,17.889 514.148,17.592C516.45,17.147 517.849,18.749 517.988,21.022C518.127,23.283 517.072,24.809 514.597,24.928C512,25.052 511,22.915 511,21.022Z" style="fill:rgb(142,125,100);fill-rule:nonzero;"/>
</svg>
