<?xml version="1.0" encoding="UTF-8" standalone="no"?>
<!DOCTYPE svg PUBLIC "-//W3C//DTD SVG 1.1//EN" "http://www.w3.org/Graphics/SVG/1.1/DTD/svg11.dtd">
<svg width="100%" height="100%" viewBox="0 0 625 47" version="1.1" xmlns="http://www.w3.org/2000/svg" xmlns:xlink="http://www.w3.org/1999/xlink" xml:space="preserve" xmlns:serif="http://www.serif.com/" style="fill-rule:evenodd;clip-rule:evenodd;stroke-linejoin:round;stroke-miterlimit:2;">
    <g transform="matrix(-1,-1.22465e-16,-1.22465e-16,1,667.963,-1.62401)">
        <path d="M317.023,4.357L317.023,4.357C319.629,5.296 324.805,8.892 324.364,9.133C321.047,10.952 321.693,14.907 324.43,16.857C325.604,17.694 329.374,18.785 331.796,17.249C331.816,17.236 342.963,29.065 346.909,33.625C348.418,35.368 352.332,41.706 352.492,42.234L352.491,42.232L352.491,42.234C350.156,40.229 348.174,38.457 346.301,36.839C344.881,35.614 343.524,34.477 342.124,33.395C340.846,32.407 339.523,31.474 338.181,30.568C336.477,29.417 334.741,28.309 333.023,27.182C330.352,25.432 327.708,24.341 325.108,23.848C320.123,22.901 314.366,23.905 308.04,29.162C299.485,36.271 289.433,40.287 279.462,44.488C277.166,45.455 274.875,46.432 272.607,47.458C271.901,47.778 271.224,47.989 270.574,48.097C268.085,48.511 265.994,47.42 264.203,45.175C262.864,43.495 261.567,41.76 260.095,40.202C259.965,40.064 259.834,39.928 259.701,39.793C257.844,37.91 256.214,36.68 254.59,36.039C252.5,35.214 250.42,35.366 247.877,36.36C245.032,37.473 242.068,40.238 237.827,40.242C213.136,40.265 187.981,40.419 162.864,40.375C141.572,40.338 129.351,40.704 108.42,40.674C100.201,40.663 82.939,40.657 74.722,40.674C65.25,40.695 55.779,40.147 46.309,40.178C41.143,40.194 43.157,34.794 44.897,34.718C44.897,34.718 58.912,35.236 74.722,35.147C84.701,35.09 104.438,35.039 112.774,34.971C132.485,34.813 143.151,34.83 162.864,34.718C171.872,34.667 180.893,33.88 189.889,34.36C194.503,34.605 202.056,32.542 202.46,19.19C202.462,19.129 202.463,19.069 202.463,19.009C202.463,18.423 202.462,27.716 202.462,28.949C202.462,30.617 202.242,32.408 203.275,33.464L203.284,33.473C203.465,33.656 203.691,33.812 203.972,33.936C204.347,34.1 204.819,34.205 205.416,34.238C206.89,34.317 208.403,34.532 209.707,34.242C210.768,34.006 211.691,33.437 212.342,32.188C212.57,31.751 217.195,24.53 217.92,15.558C218.015,14.386 217.92,23.471 217.92,27.865C218.256,31.256 218.666,32.881 220.181,33.665C221.446,34.319 223.48,34.388 226.883,34.411C227.213,34.414 227.556,34.415 227.913,34.417C228.707,34.421 229.501,34.425 230.295,34.428C233.201,34.441 236.107,34.445 239.011,34.411C239.155,34.409 240.34,34.407 240.485,34.405C244.341,34.353 244.549,32.108 243.491,28.736C243.421,28.513 243.348,28.288 243.271,28.063C242.593,26.076 241.636,24.029 240.218,22.634C238.71,21.15 236.388,19.844 234.21,19.844C231.352,19.844 230.468,23.61 230.873,25.068C231.074,25.789 231.228,27.654 237.827,28.171C237.068,28.19 232.872,28.077 232.208,27.844C230.248,27.154 228.893,25.416 229.269,22.948C229.636,20.536 231.943,17.397 234.133,16.573C234.247,16.53 234.364,16.493 234.484,16.46C235.884,16.079 237.724,16.355 239.422,16.941C240.238,17.222 241.021,17.574 241.707,17.959C241.817,18.021 241.924,18.084 242.029,18.147C247.445,21.422 254.694,27.21 260.095,31.277C262.001,32.712 262.675,30.617 264.446,29.365C265.521,28.606 266.721,28.026 267.972,27.518C269.746,26.799 274.156,27.351 274.156,27.351C274.156,27.351 271.458,28.629 270.191,29.442C266.495,31.815 261.99,44.488 273.979,44.488C276.778,44.488 278.974,42.897 280.156,40.674C280.698,39.655 280.984,33.936 280.984,33.936C282.845,33.936 296.111,34.643 295.584,29.575C295.402,27.831 294.896,26.665 294.896,26.665C295.845,25.75 297.877,25.285 297.877,25.285C299.773,25.822 300.458,28.604 300.568,28.698C301.607,28.43 303.574,26.898 303.574,25.75C303.574,24.784 302.278,22.634 302.278,22.634C303.424,21.355 304.987,20.726 304.987,20.726C306.868,21.593 306.776,22.852 307.779,22.852C311.394,22.852 316.017,6.469 317.022,4.357L317.023,4.357ZM393.948,4.357L393.948,4.357C391.342,5.296 386.166,8.892 386.607,9.133C389.924,10.952 389.278,14.907 386.541,16.857C385.367,17.694 381.596,18.785 379.175,17.249C379.154,17.236 368.008,29.065 364.062,33.625C362.553,35.368 358.639,41.706 358.479,42.234L358.48,42.232L358.48,42.234C360.814,40.229 362.797,38.457 364.67,36.839C366.09,35.614 367.447,34.477 368.846,33.395C370.125,32.407 371.447,31.474 372.789,30.568C374.494,29.417 376.23,28.309 377.948,27.182C380.619,25.432 383.263,24.341 385.863,23.848C390.848,22.901 396.605,23.905 402.931,29.162C411.486,36.271 421.538,40.287 431.509,44.488C433.805,45.455 436.096,46.432 438.364,47.458C439.07,47.778 439.747,47.989 440.397,48.097C442.886,48.511 444.977,47.42 446.768,45.175C448.107,43.495 449.404,41.76 450.876,40.202C451.006,40.064 451.137,39.928 451.27,39.793C453.127,37.91 454.757,36.68 456.381,36.039C458.471,35.214 460.551,35.366 463.094,36.36C465.939,37.473 468.902,40.238 473.144,40.242C497.835,40.265 522.99,40.419 548.107,40.375C569.399,40.338 581.62,40.704 602.551,40.674C610.77,40.663 628.032,40.657 636.249,40.674C645.721,40.695 655.192,40.147 664.662,40.178C669.828,40.194 667.814,34.794 666.074,34.718C666.074,34.718 652.059,35.236 636.249,35.147C626.27,35.09 606.533,35.039 598.197,34.971C578.486,34.813 567.82,34.83 548.107,34.718C539.099,34.667 530.078,33.88 521.082,34.36C516.467,34.605 508.915,32.542 508.51,19.19C508.509,19.129 508.508,19.069 508.508,19.009C508.508,18.423 508.509,27.716 508.509,28.949C508.509,30.617 508.729,32.408 507.696,33.464L507.687,33.473C507.506,33.656 507.28,33.812 506.998,33.936C506.624,34.1 506.152,34.205 505.555,34.238C504.081,34.317 502.568,34.532 501.264,34.242C500.203,34.006 499.28,33.437 498.629,32.188C498.401,31.751 493.776,24.53 493.051,15.558C492.956,14.386 493.051,23.471 493.051,27.865C492.715,31.256 492.305,32.881 490.79,33.665C489.525,34.319 487.491,34.388 484.088,34.411C483.758,34.414 483.415,34.415 483.058,34.417C482.264,34.421 481.47,34.425 480.676,34.428C477.77,34.441 474.864,34.445 471.96,34.411C471.816,34.409 470.63,34.407 470.486,34.405C466.63,34.353 466.422,32.108 467.48,28.736C467.55,28.513 467.623,28.288 467.7,28.063C468.378,26.076 469.335,24.029 470.753,22.634C472.261,21.15 474.583,19.844 476.761,19.844C479.619,19.844 480.503,23.61 480.098,25.068C479.897,25.789 479.743,27.654 473.144,28.171C473.903,28.19 478.099,28.077 478.763,27.844C480.723,27.154 482.078,25.416 481.702,22.948C481.335,20.536 479.028,17.397 476.838,16.573C476.724,16.53 476.607,16.493 476.486,16.46C475.087,16.079 473.247,16.355 471.549,16.941C470.733,17.222 469.95,17.574 469.264,17.959C469.154,18.021 469.047,18.084 468.942,18.147C463.526,21.422 456.277,27.21 450.876,31.277C448.97,32.712 448.296,30.617 446.524,29.365C445.45,28.606 444.25,28.026 442.999,27.518C441.225,26.799 436.815,27.351 436.815,27.351C436.815,27.351 439.513,28.629 440.78,29.442C444.476,31.815 448.981,44.488 436.992,44.488C434.193,44.488 431.997,42.897 430.815,40.674C430.273,39.655 429.987,33.936 429.987,33.936C428.126,33.936 414.86,34.643 415.387,29.575C415.569,27.831 416.075,26.665 416.075,26.665C415.126,25.75 413.093,25.285 413.093,25.285C411.198,25.822 410.513,28.604 410.402,28.698C409.364,28.43 407.397,26.898 407.397,25.75C407.397,24.784 408.692,22.634 408.692,22.634C407.547,21.355 405.984,20.726 405.984,20.726C404.103,21.593 404.195,22.852 403.191,22.852C399.577,22.852 394.954,6.469 393.948,4.357L393.948,4.357ZM408.692,41.589C405.544,37.371 397.286,33.625 388.242,33.625C378.075,33.625 372.278,39.685 370.716,43.444C370.807,43.432 374.062,40.728 380.88,41.186C381.731,40.64 382.372,35.822 388.242,35.822C395.367,35.822 394.385,40.077 395.367,39.793C400.408,38.335 408.562,41.569 408.692,41.589ZM302.278,41.589C305.427,37.371 313.685,33.625 322.728,33.625C332.896,33.625 338.693,39.685 340.255,43.444C340.164,43.432 336.908,40.728 330.091,41.186C329.24,40.64 328.599,35.822 322.728,35.822C315.604,35.822 316.585,40.077 315.604,39.793C310.563,38.335 302.408,41.569 302.278,41.589ZM355.485,22.892C361.335,21.496 363.143,14.254 363.143,14.254C363.143,14.254 369.976,14.391 376.195,11.686C376.195,11.686 365.92,24.275 355.555,24.342L355.5,24.343L355.485,24.343L355.471,24.343L355.416,24.342C345.051,24.275 334.775,11.686 334.775,11.686C340.994,14.391 347.828,14.254 347.828,14.254C347.828,14.254 349.636,21.496 355.485,22.892ZM282.507,7.666C282.85,7.409 282.979,5.005 282.979,5.005C285.116,4.989 288.667,6.767 290.227,7.937C292.28,9.477 294.332,12.838 293.943,15.316C293.232,19.859 291.409,21.49 291.172,21.808C291.236,21.589 292.062,19.044 291.172,15.701C290.98,14.981 289.524,10.45 284.087,9.84C282.503,9.662 279.479,10.555 278.434,13.892C276.832,19.009 279.462,20.275 281.149,20.682C282.062,20.902 283.97,21.461 285.367,20.064C287.479,17.951 286.646,15.558 282.051,15.558C281.645,15.558 284.931,13.674 285.215,13.779C286.369,14.202 287.186,15.094 287.544,16.174C287.811,16.979 287.823,17.888 287.533,18.785C287.297,19.512 285.682,23.536 282.507,23.536C280.888,23.536 275.262,23.536 274.877,15.91C274.76,13.586 274.613,11.264 274.446,8.778C274.272,6.205 274.532,4.226 272.051,1.624C278.788,2.575 278.788,2.575 278.082,2.575C277.377,2.575 276.676,3.412 276.886,4.116C277.598,6.513 280.78,8.426 282.507,7.666ZM428.463,7.666C428.121,7.409 427.992,5.005 427.992,5.005C425.855,4.989 422.304,6.767 420.744,7.937C418.69,9.477 416.639,12.838 417.028,15.316C417.739,19.859 419.562,21.49 419.799,21.808C419.735,21.589 418.909,19.044 419.799,15.701C419.991,14.981 421.447,10.45 426.884,9.84C428.468,9.662 431.492,10.555 432.537,13.892C434.139,19.009 431.509,20.275 429.822,20.682C428.909,20.902 427.001,21.461 425.604,20.064C423.492,17.951 424.325,15.558 428.92,15.558C429.326,15.558 426.04,13.674 425.756,13.779C424.602,14.202 423.785,15.094 423.427,16.174C423.16,16.979 423.147,17.888 423.438,18.785C423.674,19.512 425.289,23.536 428.463,23.536C430.082,23.536 435.709,23.536 436.094,15.91C436.211,13.586 436.358,11.264 436.525,8.778C436.698,6.205 436.439,4.226 438.92,1.624C432.183,2.575 432.183,2.575 432.889,2.575C433.594,2.575 434.294,3.412 434.085,4.116C433.373,6.513 430.191,8.426 428.463,7.666ZM256.478,5.384C257.2,4.849 257.937,4.34 258.711,3.898C259.611,3.385 260.461,3.177 261.203,3.265C262.4,3.406 263.316,4.317 263.706,5.957C263.819,6.433 266.169,19.852 265.819,20.064C264.411,17.336 262.079,11.795 259.858,10.104C258.559,9.116 256.891,8.599 254.582,8.898C254.176,8.951 253.751,9.029 253.305,9.133L253.319,9.13C253.801,7.937 255.475,6.129 256.478,5.384ZM454.492,5.384C453.771,4.849 453.034,4.34 452.26,3.898C451.36,3.385 450.51,3.177 449.768,3.265C448.571,3.406 447.655,4.317 447.265,5.957C447.152,6.433 444.802,19.852 445.152,20.064C446.56,17.336 448.891,11.795 451.113,10.104C452.411,9.116 454.08,8.599 456.389,8.898C456.795,8.951 457.22,9.029 457.666,9.133L457.652,9.13C457.17,7.937 455.496,6.129 454.492,5.384Z" style="fill:rgb(142,125,100);fill-rule:nonzero;"/>
    </g>
</svg>
