<svg id="Layer_1" data-name="Layer 1" xmlns="http://www.w3.org/2000/svg" viewBox="0 0 54.44 50.81"><defs><style>.cls-1{fill:#fff;}</style></defs><title>WeaponIcon_Rarity</title><path class="cls-1" d="M54.44,27.54A23.1,23.1,0,0,1,36.19,49.89C23.83,52.71,12.41,49.09,5,38.23c-6.24-9.11-6.86-18.61-.41-27.9C9.11,3.77,15.64.56,24.23.05c15.85-.94,27.26,10.87,29.51,21.7C54.14,23.65,54.21,25.61,54.44,27.54Zm-3.38-.86A60.66,60.66,0,0,0,50,20.07C47.41,10.45,35.54.79,21,3.33,7.76,5.64,2.08,18.11,3.44,26.67a24.38,24.38,0,0,0,8,15c5.21,4.56,11.61,7.39,18.66,6.75C42.61,47.26,51.68,38.32,51.06,26.68Z"/><path d="M51.06,26.68c.62,11.64-8.45,20.58-20.94,21.73-7,.64-13.45-2.19-18.66-6.75a24.38,24.38,0,0,1-8-15C2.08,18.11,7.76,5.64,21,3.33,35.54.79,47.41,10.45,50,20.07A60.66,60.66,0,0,1,51.06,26.68Z"/><g id="_4wGgjW" data-name="4wGgjW"><path d="M11.33,22.36l2.5-3.72,2.6-3.9a.49.49,0,0,1,.47-.27H35c.84,0,1.67,0,2.51,0a.47.47,0,0,1,.34.17c1.73,2.57,3.44,5.14,5.17,7.74L27.26,40.88l-2-2.27L16.2,28.06l-4.87-5.64ZM27.12,36h.08l4.09-12.28H23ZM38.39,23.72H33.07a.42.42,0,0,0-.48.35c-.92,2.77-1.85,5.54-2.77,8.3-.25.74-.49,1.48-.74,2.21l.05,0ZM16,23.72l9.12,10.57a.33.33,0,0,0,0-.2q-1-2.94-2-5.9L21.73,24c-.06-.17-.1-.33-.34-.33ZM32.44,22l3.87-4.84H28.57ZM21.88,22l3.88-4.85H18Zm5.28-4.46-3.87,4.84H31ZM20.5,22.39l-3.26-4.07-.21.29-2.2,3.32a1.13,1.13,0,0,0-.13.32,1.09,1.09,0,0,0,.38.14H20.5Zm13.32,0h5.5a.41.41,0,0,0,.29-.12c0-.06,0-.2-.08-.28-.29-.46-.59-.9-.88-1.34l-1.56-2.34Z"/><path class="cls-1" d="M27.12,36,23,23.73h8.26L27.2,36Z"/><path class="cls-1" d="M38.39,23.72,29.13,34.6l-.05,0c.25-.73.49-1.47.74-2.21.92-2.76,1.85-5.53,2.77-8.3a.42.42,0,0,1,.48-.35h5.32Z"/><path class="cls-1" d="M16,23.72h5.43c.24,0,.28.16.34.33l1.38,4.15q1,3,2,5.9a.33.33,0,0,1,0,.2Z"/><path class="cls-1" d="M32.44,22l-3.87-4.84h7.74Z"/><path class="cls-1" d="M21.88,22,18,17.14h7.75Z"/><path class="cls-1" d="M27.16,17.53,31,22.37H23.29Z"/><path class="cls-1" d="M20.5,22.39H15.08a1.09,1.09,0,0,1-.38-.14,1.13,1.13,0,0,1,.13-.32L17,18.61l.21-.29Z"/><path class="cls-1" d="M33.82,22.39l3.27-4.08,1.56,2.34c.29.44.59.88.88,1.34,0,.08.11.22.08.28a.41.41,0,0,1-.29.12h-5.5Z"/></g></svg>