<svg id="Layer_1" data-name="Layer 1" xmlns="http://www.w3.org/2000/svg" viewBox="0 0 54.44 50.81"><defs><style>.cls-1{fill:#fff;}.cls-2{fill:none;stroke:#fff;stroke-miterlimit:10;}</style></defs><title>WeaponIcon_MaxClipSize</title><path class="cls-1" d="M28.73,50.69c-13.92,0-24.9-7.9-28-20.68C-2.48,16.51,4.82,4.46,18.4.94,38.19-4.17,57.21,12.28,54.1,31.73c-1.68,10.51-12.45,19.76-22.38,19C30.73,50.62,29.72,50.69,28.73,50.69ZM26.1,3.16c-12.47-1.11-26.51,9.7-22,27.53,2,8,7.82,13.58,16,16.62,8.66,3.23,16.53,1.73,23.61-3.78,7.32-5.68,8.84-13.62,7-21.75C48.22,10.68,37,2.54,26.1,3.16Z"/><path d="M26.1,3.16C37,2.54,48.22,10.68,50.71,21.78c1.82,8.13.3,16.07-7,21.75-7.08,5.51-14.95,7-23.61,3.78C12,44.27,6.17,38.69,4.13,30.69-.41,12.86,13.63,2.05,26.1,3.16Zm1.6,40.05c4.11-2.31,7.88-4.28,11.5-6.49,2.93-1.8,3.3-3.38,1.54-6.43-3.3-5.73-6.75-11.37-10.15-17-1-1.62-2-3.21-3.13-5-3.6,1.78-6.83,3.36-10,5C13.81,15,12.86,17.58,14.81,21,19,28.29,23.22,35.51,27.7,43.21Z"/><path class="cls-1" d="M27.7,43.21C23.22,35.51,19,28.29,14.81,21c-2-3.43-1-6,2.62-7.83,3.2-1.61,6.43-3.19,10-5,1.14,1.82,2.16,3.41,3.13,5,3.4,5.68,6.85,11.32,10.15,17,1.76,3.05,1.39,4.63-1.54,6.43C35.58,38.93,31.81,40.9,27.7,43.21Zm2.14-6.92,9.54-5.18c-2.31-3.89-4.2-7.27-6.28-10.53s-3.44-7.22-6.91-9.94l-9,4.57Z"/><path d="M29.84,36.29,17.23,15.21l9-4.57c3.47,2.72,4.79,6.6,6.91,9.94s4,6.64,6.28,10.53Z"/><line class="cls-2" x1="20.9" y1="16.95" x2="26.75" y2="14.11"/><line class="cls-2" x1="23.25" y1="20.47" x2="29.1" y2="17.63"/><line class="cls-2" x1="25.61" y1="23.99" x2="31.45" y2="21.15"/><line class="cls-2" x1="27.81" y1="27.83" x2="33.65" y2="24.98"/><line class="cls-2" x1="29.88" y1="31.66" x2="35.72" y2="28.82"/></svg>