<svg id="Layer_1" data-name="Layer 1" xmlns="http://www.w3.org/2000/svg" viewBox="0 0 54.44 50.81"><defs><style>.cls-1{fill:#fff;}</style></defs><title>WeaponIcon_Accuracy</title><path class="cls-1" d="M26,0c17.1-.84,32.16,17,27.65,33.06C51.14,41.92,41.66,50,30.81,50.7c-12.08.74-25.45-7.27-29.51-19C-3.23,18.64,4.6,4.56,16.87,1.15A14.14,14.14,0,0,1,19.16.42C21.42.22,23.7.15,26,0Zm3.33,48.61c1.26-.23,3.65-.56,6-1.11C46,45,52.76,33.91,51.31,24.62c-1.5-9.64-7.19-16.68-17-20.28-8.59-3.15-16.84-2.16-23.6,3.78C3.49,14.48,1.11,22.42,4.48,31.6,8.39,42.27,18.61,48.14,29.31,48.64Z"/><path d="M29.31,48.64c-10.7-.5-20.92-6.37-24.83-17-3.37-9.18-1-17.12,6.25-23.48,6.76-5.94,15-6.93,23.6-3.78,9.79,3.6,15.48,10.64,17,20.28C52.76,33.91,46,45,35.29,47.53,33,48.08,30.57,48.41,29.31,48.64Zm-13.11-24A11.6,11.6,0,0,0,27.62,36c5.71,0,10.66-4.67,10.61-10-.06-5.87-5.69-11-12.08-11C20.2,15.11,16.21,19,16.2,24.66Z"/><path class="cls-1" d="M16.2,24.66c0-5.71,4-9.55,10-9.58,6.39,0,12,5.08,12.08,11,.05,5.33-4.9,10-10.61,10A11.6,11.6,0,0,1,16.2,24.66ZM34.9,25.9a8.22,8.22,0,0,0-8.51-8.13c-4.2.08-7.39,3-7.51,6.9-.14,4.52,3.55,8.14,8.41,8.22C31.85,33,34.86,30.21,34.9,25.9Z"/><path d="M34.9,25.9c0,4.31-3,7.08-7.61,7-4.86-.08-8.55-3.7-8.41-8.22.12-3.89,3.31-6.82,7.51-6.9A8.22,8.22,0,0,1,34.9,25.9Zm-7.81,5c3.58.08,5.6-1.66,5.67-4.88a6,6,0,0,0-6.22-6.31A5.88,5.88,0,0,0,20.85,25C20.79,28.12,23.67,30.83,27.09,30.9Z"/><path class="cls-1" d="M27.09,30.9c-3.42-.07-6.3-2.78-6.24-5.88a5.88,5.88,0,0,1,5.69-5.31A6,6,0,0,1,32.76,26C32.69,29.24,30.67,31,27.09,30.9Z"/></svg>