<svg id="Layer_1" data-name="Layer 1" xmlns="http://www.w3.org/2000/svg" viewBox="0 0 54.44 50.81"><defs><style>.cls-1{fill:#fff;}</style></defs><title>WeaponIcon_Weight</title><path class="cls-1" d="M54.44,27.54A23.1,23.1,0,0,1,36.19,49.89C23.83,52.71,12.41,49.09,5,38.23c-6.24-9.11-6.86-18.61-.41-27.9C9.11,3.77,15.64.56,24.23.05c15.85-.94,27.26,10.87,29.51,21.7C54.14,23.65,54.21,25.61,54.44,27.54Zm-3.38-.86A60.66,60.66,0,0,0,50,20.07C47.41,10.45,35.54.79,21,3.33,7.76,5.64,2.08,18.11,3.44,26.67a24.38,24.38,0,0,0,8,15c5.21,4.56,11.61,7.39,18.66,6.75C42.61,47.26,51.68,38.32,51.06,26.68Z"/><path d="M51.06,26.68c.62,11.64-8.45,20.58-20.94,21.73-7,.64-13.45-2.19-18.66-6.75a24.38,24.38,0,0,1-8-15C2.08,18.11,7.76,5.64,21,3.33,35.54.79,47.41,10.45,50,20.07A60.66,60.66,0,0,1,51.06,26.68Zm-34.68-8.9c-.91,6.07-1.73,11.48-2.59,17.18H42.31c-1.7-5.81-3.28-11.23-5-17l-6.51-.62C30.4,12.92,29,11,26.44,11s-3.89,2-3.77,6.5Z"/><path class="cls-1" d="M16.38,17.78l6.29-.3c-.12-4.53,1-6.5,3.77-6.5s4,1.94,4.39,6.38l6.51.62c1.69,5.75,3.27,11.17,5,17H13.79C14.65,29.26,15.47,23.85,16.38,17.78Z"/></svg>