<svg id="Layer_1" data-name="Layer 1" xmlns="http://www.w3.org/2000/svg" viewBox="0 0 54.44 50.81"><defs><style>.cls-1{fill:#fff;}</style></defs><title>WeaponIcon_RoF</title><path class="cls-1" d="M29.33,50.71C14.66,52,2.91,40.86.59,29.69-2.9,12.81,9.51.25,24.06.17,31.74.12,38.68,1.71,44.27,6.85c11,10.08,14.11,23,4.2,35.77A20.87,20.87,0,0,1,32.06,50.7C30.89,50.73,29.72,50.71,29.33,50.71ZM51.11,27.36c-.28-1.77-.45-3.55-.84-5.29A24.9,24.9,0,0,0,27.59,3c-8.51-.48-15.46,2.13-20.49,8.9S2,26.29,5.12,33.84C8,40.76,13.6,45.06,20.61,47.56,34,52.32,50.61,44.28,51.11,27.36Z"/><path d="M51.11,27.36c-.5,16.92-17.11,25-30.5,20.2-7-2.5-12.61-6.8-15.49-13.72C2,26.29,2,18.77,7.1,11.94s12-9.38,20.49-8.9a24.9,24.9,0,0,1,22.68,19C50.66,23.81,50.83,25.59,51.11,27.36ZM30.81,31.3C25.18,27.53,19.68,29.63,14,29.13c.33,1.68.59,3,.89,4.52C20.33,33.71,25.65,35.09,30.81,31.3Zm.88-3.36c5.59-.09,11,1.57,16.08-2.2-5.31-3.7-10.68-2.15-16.32-2.25C31.53,25,31.61,26.34,31.69,27.94Zm4.8-9.34c-5.54-3.47-11.07-2.49-17-2.2.33,1.71.6,3.08.93,4.76,2.87,0,5.48,0,8.1,0A11.89,11.89,0,0,0,36.49,18.6ZM9,24.4l0,1.11H28.84v-1C22.25,24.12,15.64,24.31,9,24.4Z"/><path class="cls-1" d="M30.81,31.3c-5.16,3.79-10.48,2.41-15.93,2.35-.3-1.5-.56-2.84-.89-4.52C19.68,29.63,25.18,27.53,30.81,31.3Z"/><path class="cls-1" d="M31.69,27.94c-.08-1.6-.16-2.94-.24-4.45,5.64.1,11-1.45,16.32,2.25C42.68,29.51,37.28,27.85,31.69,27.94Z"/><path class="cls-1" d="M36.49,18.6a11.89,11.89,0,0,1-7.94,2.57c-2.62,0-5.23,0-8.1,0-.33-1.68-.6-3.05-.93-4.76C25.42,16.11,31,15.13,36.49,18.6Z"/><path class="cls-1" d="M9,24.4c6.6-.09,13.21-.28,19.8.11v1H9Z"/></svg>