<svg id="Layer_1" data-name="Layer 1" xmlns="http://www.w3.org/2000/svg" viewBox="0 0 54.44 50.81"><defs><style>.cls-1{fill:#fff;}</style></defs><title>WeaponIcon_MaxAmmo</title><path class="cls-1" d="M29.58,50.75C11.91,50.14-.44,37.34,0,22.87.42,9.85,12.18.31,24.2,0c15.46-.39,27.68,10.05,30,24.09,1.48,9.15-2.8,16.7-10.51,22.22A25.43,25.43,0,0,1,29.58,50.75ZM27,48c1.06,0,1.71,0,2.36,0,9.3.58,21.42-7.32,21.66-20.72.19-10.64-7.65-20.42-18.52-23.52-9.4-2.67-19.36.37-24.85,7.59C1.86,18.92,2.28,27,6.24,35.06a22.68,22.68,0,0,0,10.09,9.85C19.69,46.71,23.06,49.05,27,48Z"/><path d="M27,48c-3.91,1.08-7.28-1.26-10.64-3.06A22.68,22.68,0,0,1,6.24,35.06C2.28,27,1.86,18.92,7.62,11.33,13.11,4.11,23.07,1.07,32.47,3.74,43.34,6.84,51.18,16.62,51,27.26,50.75,40.66,38.63,48.56,29.33,48,28.68,47.94,28,48,27,48ZM18.29,8.17c-2,3.88-3.47,7.33-5.44,10.52-1.77,2.87-1.92,5.81-1.73,9a5.27,5.27,0,0,0,3.63,5c4.76,2,9.44,4.19,14.18,6.26,2.32,1,4.67,1.93,7.33,3C38.49,36,40.61,30.5,42.6,25c.22-.6-.3-1.44-.68-3L35.26,38.66,25.4,34.28c3.53-1.6,5.58,1.69,9.05,1.53,1.65-4.15,3.33-8.47,5.13-12.76a10,10,0,0,1,1.91-3c1.77-1.89,1.75-3.25-.68-4.13C33.54,13.32,26.19,10.89,18.29,8.17Z"/><path class="cls-1" d="M18.29,8.17c7.9,2.72,15.25,5.15,22.52,7.79,2.43.88,2.45,2.24.68,4.13a10,10,0,0,0-1.91,3c-1.8,4.29-3.48,8.61-5.13,12.76C31,36,28.93,32.68,25.4,34.28l9.86,4.38,6.66-16.72c.38,1.58.9,2.42.68,3-2,5.54-4.11,11-6.34,16.95-2.66-1.09-5-2-7.33-3-4.74-2.07-9.42-4.25-14.18-6.26a5.27,5.27,0,0,1-3.63-5c-.19-3.15,0-6.09,1.73-9C14.82,15.5,16.31,12.05,18.29,8.17ZM13.72,22.29l20.6,8.44c1.91-4.71,3.59-8.85,5.35-13.17-3.43-1.18-6.57-2.32-9.76-3.36s-6.71-2.06-10.25-3.14C19,12.12,18.29,13,17.8,13.92,16.46,16.55,15.21,19.22,13.72,22.29Z"/><path d="M13.72,22.29c1.49-3.07,2.74-5.74,4.08-8.37.49-.94,1.17-1.8,1.86-2.86,3.54,1.08,6.92,2.06,10.25,3.14s6.33,2.18,9.76,3.36c-1.76,4.32-3.44,8.46-5.35,13.17Zm5.93.5c.77-3.51,3.73-6,1.93-9.67-3.29,2.14-3.9,5.13-4.69,8.16C17.71,21.74,18.39,22.1,19.65,22.79ZM25.52,25c1,.21,1.94.64,2.15.42a7.8,7.8,0,0,0,2.1-3c.49-1.76,2.2-3.52.51-5.74C26.92,18.54,26.51,21.65,25.52,25Zm.6-10.31c-3.6,2.3-3.84,5.41-4.88,8.44l2.59,1C25.23,21.35,26.85,18.69,26.12,14.71Zm6.54,13.74c.78-3.62,3.59-6,2.05-9.73-3.44,1.61-3.55,4.73-4.32,7.41C30.27,26.54,31.48,27.29,32.66,28.45Z"/><path class="cls-1" d="M19.65,22.79c-1.26-.69-1.94-1.05-2.76-1.51.79-3,1.4-6,4.69-8.16C23.38,16.82,20.42,19.28,19.65,22.79Z"/><path class="cls-1" d="M25.52,25c1-3.37,1.4-6.48,4.76-8.27,1.69,2.22,0,4-.51,5.74a7.8,7.8,0,0,1-2.1,3C27.46,25.66,26.51,25.23,25.52,25Z"/><path class="cls-1" d="M26.12,14.71c.73,4-.89,6.64-2.29,9.39l-2.59-1C22.28,20.12,22.52,17,26.12,14.71Z"/><path class="cls-1" d="M32.66,28.45c-1.18-1.16-2.39-1.91-2.27-2.32.77-2.68.88-5.8,4.32-7.41C36.25,22.42,33.44,24.83,32.66,28.45Z"/></svg>