<svg id="Layer_1" data-name="Layer 1" xmlns="http://www.w3.org/2000/svg" viewBox="0 0 54.44 50.81"><defs><style>.cls-1{fill:#fff;}</style></defs><title>WeaponIcon_damage</title><path class="cls-1" d="M28.35,50.81C15.07,50.64,5.43,44,1.32,31.68-4.49,14.25,9.91.07,24.17,0,36.82-.06,45.82,5.21,51.56,16c7.6,14.36-.69,29.64-15.2,34.21C33.88,51,31,50.65,28.35,50.81ZM51.19,27.16c-.27-2-.38-3.95-.84-5.87C47.42,9.1,33.13-.12,19.22,3.72,8.56,6.65.93,17.84,3.27,27.71c2.58,10.91,9.2,17.78,20.57,20.69C36.45,51.63,52.17,40.29,51.19,27.16Z"/><path d="M51.19,27.16c1,13.13-14.74,24.47-27.35,21.24-11.37-2.91-18-9.78-20.57-20.69-2.34-9.87,5.29-21.06,16-24C33.13-.12,47.42,9.1,50.35,21.29,50.81,23.21,50.92,25.2,51.19,27.16ZM15.51,19.62c2.78,4.73,2.69,9.3-.21,13.62C19.07,36,20,36.42,23.35,36.62c-.5-1.52-1-3-1.76-5.27l14.29-.88-7.35-3.91,14.3-8c-6.59-1.53-12.33,2.22-18,0,.32-2.2.6-4.12,1.05-7.19Z"/><path class="cls-1" d="M15.51,19.62l10.36-8.27c-.45,3.07-.73,5-1.05,7.19,5.68,2.26,11.42-1.49,18,0l-14.3,8,7.35,3.91-14.29.88c.76,2.25,1.26,3.75,1.76,5.27-3.33-.2-4.28-.59-8-3.38C18.2,28.92,18.29,24.35,15.51,19.62Z"/></svg>