<svg id="Layer_1" data-name="Layer 1" xmlns="http://www.w3.org/2000/svg" viewBox="0 0 54.44 50.81"><defs><style>.cls-1{fill:#fff;}</style></defs><title>WeaponIcon_Condition</title><path class="cls-1" d="M54.44,27.54A23.1,23.1,0,0,1,36.19,49.89C23.83,52.71,12.41,49.09,5,38.23c-6.24-9.11-6.86-18.61-.41-27.9C9.11,3.77,15.64.56,24.23.05c15.85-.94,27.26,10.87,29.51,21.7C54.14,23.65,54.21,25.61,54.44,27.54Zm-3.38-.86A60.66,60.66,0,0,0,50,20.07C47.41,10.45,35.54.79,21,3.33,7.76,5.64,2.08,18.11,3.44,26.67a24.38,24.38,0,0,0,8,15c5.21,4.56,11.61,7.39,18.66,6.75C42.61,47.26,51.68,38.32,51.06,26.68Z"/><path d="M51.06,26.68c.62,11.64-8.45,20.58-20.94,21.73-7,.64-13.45-2.19-18.66-6.75a24.38,24.38,0,0,1-8-15C2.08,18.11,7.76,5.64,21,3.33,35.54.79,47.41,10.45,50,20.07A60.66,60.66,0,0,1,51.06,26.68Z"/><g id="_6Jt0ul" data-name="6Jt0ul"><path class="cls-1" d="M24.25,12c.36,0,.73.08,1.1.14a8.88,8.88,0,0,1,3,1,9.33,9.33,0,0,1,3.43,3.11A9,9,0,0,1,33,19.08a9.62,9.62,0,0,1,.17,4A9.26,9.26,0,0,1,31.9,26.5a9.43,9.43,0,0,1-2.49,2.66,9,9,0,0,1-3.49,1.56,9.65,9.65,0,0,1-5.74-.5,9.37,9.37,0,0,1-2.86-1.87,9.77,9.77,0,0,1-1.88-2.5A9,9,0,0,1,14.52,23c0-.37-.09-.74-.14-1.11v-.77a1.22,1.22,0,0,0,0-.17,9.54,9.54,0,0,1,.55-2.7,9.4,9.4,0,0,1,1.7-2.92,9.58,9.58,0,0,1,3.19-2.42,9.17,9.17,0,0,1,2.28-.72c.45-.07.9-.11,1.35-.17Zm-7.42,9.48a7,7,0,1,0,7-7A7,7,0,0,0,16.83,21.49Z"/><path class="cls-1" d="M30,30.49a10.39,10.39,0,0,0,2.88-2.88l.15.14c.9.9,1.41,1.37,2.32,2.28l4.75,4.7L37,37.41s-5.08-5-5.92-5.82l-1-1Z"/><path class="cls-1" d="M18.71,21.65a6.33,6.33,0,0,1,.19-.75.56.56,0,0,1,.8-.25,2.34,2.34,0,0,1,.72.68A4.92,4.92,0,0,1,21,22.65a5.09,5.09,0,0,0,1,1.7,9.2,9.2,0,0,0,2.36,1.85,4.67,4.67,0,0,1,.43.3c.06,0,.13.16.11.19a.3.3,0,0,1-.21.13,3.48,3.48,0,0,1-.79,0,6.4,6.4,0,0,1-3.14-1.42,5.2,5.2,0,0,1-1.87-3.15,5.6,5.6,0,0,1-.07-.59Z"/></g></svg>