<?xml version="1.0" encoding="UTF-8" standalone="no"?>
<!-- Created with Inkscape (http://www.inkscape.org/) -->

<svg
   xmlns:dc="http://purl.org/dc/elements/1.1/"
   xmlns:cc="http://creativecommons.org/ns#"
   xmlns:rdf="http://www.w3.org/1999/02/22-rdf-syntax-ns#"
   xmlns:svg="http://www.w3.org/2000/svg"
   xmlns="http://www.w3.org/2000/svg"
   xmlns:xlink="http://www.w3.org/1999/xlink"
   xmlns:sodipodi="http://sodipodi.sourceforge.net/DTD/sodipodi-0.dtd"
   xmlns:inkscape="http://www.inkscape.org/namespaces/inkscape"
   width="1920"
   height="600"
   viewBox="0 0 507.99999 158.75"
   version="1.1"
   id="svg8"
   inkscape:version="0.92.3 (2405546, 2018-03-11)"
   sodipodi:docname="cover.svg"
   inkscape:export-filename="D:\Projects\worldanvil-templates\themes\galaxyanvil\images\cover.png"
   inkscape:export-xdpi="105.801"
   inkscape:export-ydpi="105.801">
  <defs
     id="defs2">
    <marker
       inkscape:stockid="DiamondL"
       orient="auto"
       refY="0.0"
       refX="0.0"
       id="DiamondL"
       style="overflow:visible"
       inkscape:isstock="true">
      <path
         id="path1107"
         d="M 0,-7.0710768 L -7.0710894,0 L 0,7.0710589 L 7.0710462,0 L 0,-7.0710768 z "
         style="fill-rule:evenodd;stroke:#000000;stroke-width:1.0pt"
         transform="scale(0.8)" />
    </marker>
    <marker
       inkscape:stockid="DiamondLend"
       orient="auto"
       refY="0.0"
       refX="0.0"
       id="DiamondLend"
       style="overflow:visible"
       inkscape:isstock="true">
      <path
         id="path1125"
         d="M 0,-7.0710768 L -7.0710894,0 L 0,7.0710589 L 7.0710462,0 L 0,-7.0710768 z "
         style="fill-rule:evenodd;stroke:#000000;stroke-width:1.0pt"
         transform="scale(0.8) translate(-7,0)" />
    </marker>
    <linearGradient
       inkscape:collect="always"
       id="linearGradient866">
      <stop
         style="stop-color:#3f0700;stop-opacity:1"
         offset="0"
         id="stop862" />
      <stop
         style="stop-color:#424242;stop-opacity:0;"
         offset="1"
         id="stop864" />
    </linearGradient>
    <linearGradient
       inkscape:collect="always"
       xlink:href="#linearGradient866"
       id="linearGradient868"
       x1="254"
       y1="138.24998"
       x2="254"
       y2="254.66664"
       gradientUnits="userSpaceOnUse" />
  </defs>
  <sodipodi:namedview
     id="base"
     pagecolor="#ffffff"
     bordercolor="#666666"
     borderopacity="1.0"
     inkscape:pageopacity="0.0"
     inkscape:pageshadow="2"
     inkscape:zoom="0.98994949"
     inkscape:cx="961.47069"
     inkscape:cy="131.17195"
     inkscape:document-units="mm"
     inkscape:current-layer="layer1"
     showgrid="true"
     units="px"
     inkscape:snap-bbox="true"
     inkscape:bbox-nodes="true"
     inkscape:window-width="2560"
     inkscape:window-height="1387"
     inkscape:window-x="-8"
     inkscape:window-y="22"
     inkscape:window-maximized="1"
     inkscape:snap-text-baseline="true"
     inkscape:snap-global="true"
     inkscape:snap-object-midpoints="true"
     inkscape:snap-bbox-midpoints="false">
    <inkscape:grid
       type="xygrid"
       id="grid815"
       spacingx="5.2916666"
       spacingy="5.2916666"
       empspacing="4" />
  </sodipodi:namedview>
  <metadata
     id="metadata5">
    <rdf:RDF>
      <cc:Work
         rdf:about="">
        <dc:format>image/svg+xml</dc:format>
        <dc:type
           rdf:resource="http://purl.org/dc/dcmitype/StillImage" />
        <dc:title></dc:title>
      </cc:Work>
    </rdf:RDF>
  </metadata>
  <g
     inkscape:label="Layer 1"
     inkscape:groupmode="layer"
     id="layer1"
     transform="translate(0,-138.24998)">
    <rect
       style="fill:url(#linearGradient868);fill-opacity:1;stroke:none;stroke-width:5.29166651;stroke-linecap:butt;stroke-linejoin:bevel;stroke-miterlimit:4;stroke-dasharray:none;stroke-dashoffset:0;stroke-opacity:1;paint-order:stroke fill markers"
       id="rect860"
       width="508"
       height="158.75"
       x="0"
       y="138.24998"
       inkscape:export-xdpi="105.801"
       inkscape:export-ydpi="105.801" />
    <g
       style="overflow:visible"
       id="g877"
       transform="matrix(0.18311296,0,0,0.18311296,211.66666,170.66044)">
      <path
         id="path864"
         d="M 462.374,520.657 C 438.327,485.731 417.138,378.645 417.138,378.645 l 42.947,-17.175 -9.734,-40.66 -47.524,14.888 c 0,0 -38.365,-144.297 -38.365,-152.885 5.728,-52.683 83.602,-52.108 83.602,-52.108 v -16.034 h -201.56 v 16.034 H 134.268 c 14.315,33.21 104.788,36.646 120.25,38.362 15.463,1.72 16.031,23.478 16.031,23.478 0,0 -21.079,111.278 -36.936,195.448 L 181.101,193.062 130.583,396.196 c -6.994,-31.791 -13.187,-60.873 -18.584,-87.26 -2.547,-11.119 -4.926,-22.173 -7.149,-33.136 -2.224,-10.97 -4.214,-20.979 -5.96,-30.042 -1.745,-9.063 -3.174,-16.852 -4.286,-23.368 -1.112,-6.516 -1.83,-10.73 -2.146,-12.638 v -2.864 c 0,-3.491 0.556,-6.509 1.667,-9.056 1.111,-2.547 2.463,-4.615 4.053,-6.206 1.583,-1.9 3.491,-3.652 5.714,-5.243 -0.957,0 -3.976,0.143 -9.056,0.414 -5.081,0.278 -11.196,0.414 -18.346,0.414 H 0 c 2.534,2.224 5.075,4.926 7.622,8.1 2.224,2.541 4.447,5.954 6.671,10.239 2.224,4.292 4.131,9.134 5.721,14.531 0.95,3.814 3.174,12.787 6.671,26.917 3.49,14.134 7.705,30.805 12.631,50.017 4.926,19.211 10.006,39.689 15.249,61.441 5.242,21.759 10.168,42.004 14.777,60.737 4.603,18.746 8.339,34.855 11.196,48.353 2.857,13.497 4.292,21.513 4.292,24.06 0,4.124 -1.196,7.938 -3.575,11.429 -2.385,3.49 -4.848,6.516 -7.389,9.05 -3.18,3.181 -6.671,6.037 -10.485,8.571 h 110.57 c -1.59,-0.943 -3.019,-2.224 -4.286,-3.813 -1.273,-1.591 -2.308,-3.568 -3.103,-5.96 -0.795,-2.379 -1.189,-5.481 -1.189,-9.296 v -2.392 c 0.316,-4.124 1.428,-11.829 3.335,-23.116 1.907,-11.286 4.13,-22.818 6.671,-34.583 2.857,-13.665 5.876,-28.61 9.056,-44.822 3.181,17.168 6.199,32.915 9.057,47.214 1.267,6.038 2.463,12.088 3.575,18.126 1.112,6.037 2.14,11.674 3.096,16.923 0.95,5.249 1.667,9.696 2.146,13.355 0.479,3.658 0.718,6.114 0.718,7.382 0,3.813 -0.556,7.071 -1.668,9.773 -1.112,2.702 -2.308,4.849 -3.575,6.438 -1.273,1.913 -2.864,3.504 -4.771,4.771 h 1.38 c 0,0 18.688,0 41.643,0 h 75.74 c -17.175,-9.166 -32.638,-36.651 -32.638,-36.651 0,0 0,0 0,-13.743 6.872,-41.223 76.155,-68.139 76.155,-68.139 0,0 12.029,72.722 13.174,81.882 1.144,9.166 -21.765,36.651 -21.765,36.651 0,0 79.026,0.001 115.672,0.001 z m -166.052,-138.572 21.183,-107.654 28.63,78.449 c -10e-4,0 -36.071,15.462 -49.813,29.205 z"
         inkscape:connector-curvature="0" />
      <path
         id="path866"
         d="M 401.248,67.573 218.089,39.416 225.332,2.67 211.227,0 l -20.585,30.117 -8.387,46.888 27.447,4.958 4.803,-24.36 c 94.577,21.471 182.328,35.621 182.328,35.621 l 0.692,-4.037 0.116,0.019 3.051,-18.3 -0.02,-0.003 z"
         inkscape:connector-curvature="0" />
    </g>
  </g>
</svg>
